<?xml version="1.0" encoding="UTF-8"?>
<svg width="160px" height="80px" viewBox="0 0 160 80" version="1.1" xmlns="http://www.w3.org/2000/svg" xmlns:xlink="http://www.w3.org/1999/xlink">
    <!-- Generator: Sketch 41 (35326) - http://www.bohemiancoding.com/sketch -->
    <title>logo</title>
    <desc>Created with Sketch.</desc>
    <defs>
        <path d="M140.904242,24.8256 C142.189091,22.08 143.844848,14.172 143.844848,14.172 L106.558788,14.172 L106.558788,14.1768 C106.549091,14.4 105.413333,33.8508 119.541818,40.4064 C110.49697,50.6604 99.5745455,56.3196 93.7139394,58.5696 L71.9090909,0.0768 L50.7915152,56.7288 L50.0836364,58.6164 C41.6921212,55.4748 23.7793939,46.494 14.5030303,24.8244 L37.7587879,24.8244 L37.7587879,14.172 L35.6084848,14.172 L0,14.172 C10.390303,63.8616 56.7587879,71.49 56.7587879,71.49 L56.7612121,71.4864 L71.9090909,30.846 L87.0569697,71.49 L87.0569697,71.49 C87.0569697,71.49 87.2678788,71.4576 87.649697,71.3808 C88.0193939,71.3052 88.5442424,71.1948 89.2169697,71.034 C96.9539394,69.1716 123.649697,60.8928 137.412121,32.838 C118.484848,32.838 119.036364,24.8124 119.036364,24.8124 L140.904242,24.8256 Z" id="path-1"></path>
        <filter x="-50%" y="-50%" width="200%" height="200%" filterUnits="objectBoundingBox" id="filter-2">
            <feOffset dx="0" dy="2" in="SourceAlpha" result="shadowOffsetOuter1"></feOffset>
            <feGaussianBlur stdDeviation="3" in="shadowOffsetOuter1" result="shadowBlurOuter1"></feGaussianBlur>
            <feColorMatrix values="0 0 0 0 0   0 0 0 0 0.862745098   0 0 0 0 0.952941176  0 0 0 1 0" type="matrix" in="shadowBlurOuter1"></feColorMatrix>
        </filter>
    </defs>
    <g id="Styleguide" stroke="none" stroke-width="1" fill="none" fill-rule="evenodd">
        <g id="logo">
            <g id="logo-casux" transform="translate(8.000000, 4.000000)">
                <g id="Group">
                    <g id="Shape">
                        <path d="M14.5030303,24.8256 C23.7793939,46.4952 41.6933333,55.476 50.0836364,58.6152 L50.7915152,56.73 C46.9975758,55.2996 28.0593939,47.2992 17.8630303,26.9544 L39.9127273,26.9544 L39.9127273,14.172 L37.7587879,14.172 L37.7587879,24.8256 L14.5030303,24.8256 Z" fill="#00E7FF"></path>
                        <path d="M56.7612121,71.4852 C57.8387879,71.6964 58.9054545,71.88 58.9054545,71.88 L71.9090909,36.9972 L84.9090909,71.88 C84.9090909,71.88 85.9842424,71.6856 87.0569697,71.4888 L71.9090909,30.8472 L56.7612121,71.4852 Z" fill="#00E7FF"></path>
                        <path d="M119.541818,40.4064 C105.412121,33.8508 106.549091,14.4012 106.558788,14.1768 L104.269091,14.1768 C104.269091,14.1768 103.398788,33.0048 116.064242,40.9536 C104.379394,52.7292 92.8181818,56.7576 92.8557576,56.6472 L93.5963636,58.686 C99.4545455,56.4372 110.49697,50.6604 119.541818,40.4064 Z" fill="#00E7FF"></path>
                        <g>
                            <use fill="black" fill-opacity="1" filter="url(#filter-2)" xlink:href="#path-1"></use>
                            <use fill="#FFFFFF" fill-rule="evenodd" xlink:href="#path-1"></use>
                        </g>
                    </g>
                </g>
            </g>
        </g>
    </g>
</svg>